<svg xmlns="http://www.w3.org/2000/svg" id="gift-box" width="18px" height="17px" viewBox="0 0 18 17">
      <g stroke="none" stroke-width="1" fill="none" fill-rule="evenodd" stroke-linecap="round" stroke-linejoin="round">
        <g transform="translate(-336, -647)" stroke="#5A5A5A">
          <g transform="translate(337, 648)">
            <g>
              <path d="M15,4.43181818 L15,13.6363636 C15,14.2011998 14.5522843,14.6590909 14,14.6590909 L2,14.6590909 C1.44771527,14.6590909 1,14.2011998 1,13.6363636 L1,4.43181818"/>
              <polyline points="7 6.47727273 7 14.6590909 9 14.6590909 9 6.47727273"/>
              <path d="M9.84102373,4.43181818 L15.666,4.43181818 L15.666,2.72727273 C15.666,2.16243395 15.2189535,1.70454545 14.666,1.70454545 L12.4119873,1.70454545"/>
              <path d="M3.58801267,1.70454545 L1.333,1.70454545 C0.781046533,1.70454545 0.333,2.16243395 0.333,2.72727273 L0.333,4.43181818 L6.1875,4.43181818"/>
              <g transform="translate(3.333, 0)">
                <ellipse cx="4.6666" cy="2.72727273" rx="1" ry="1.02272727"/>
                <path d="M3.87494027,2.09840332 C2.8957736,1.09698286 1.47916667,0.340909091 0.66666,0.340909091 C-0.145833,0.340909091 0.333,1.81107955 0.333,2.38636364 C0.3333,2.96164773 0.208331733,4.43181818 1,4.43181818 C1.79166507,4.43181818 3.90625,3.37713068 3.90625,3.37713068"/>
                <path d="M5.47916667,2.15198864 C6.45833,1.15056818 7.85416667,0.340909091 8.6666,0.340909091 C9.47916667,0.340909091 9,1.81107955 9,2.38636364 C9,2.96164773 9.125,4.43181818 8.3333,4.43181818 C7.54166667,4.43181818 5.48958333,3.34517045 5.48958333,3.34517045"/>
                <polyline points="3.11458333 3.75 2.3333 5.79545455 3.3333 5.45454545 3.6666 6.47727273 4.6666 3.75"/>
                <polyline points="6.25 3.71803977 7 5.79545455 6 5.45454545 5.6666 6.47727273 4.6666 3.75"/>
              </g>
            </g>
          </g>
        </g>
      </g>
    </svg>